# xmcd CD database file
#
# Track frame offsets:
#	150
#	20644
#	40394
#	63782
#	75016
#	89675
#	102561
#	121934
#	139161
#	165566
#	180628
#	194074
#	209070
#	225452
#	236901
#	257358
#
# Disc length: 4319 seconds
#
# Revision: 0
# Processed by: cddbd v1.5.1PL0 Copyright (c) Steve Scherf et al.
# Submitted via: CDex 1.51
#
DISCID=dc10dd10
DTITLE=Rob McNurlin - Cowboy Boot Heel
DYEAR=2000
DGENRE=Country
TTITLE0=Cowboy Boot Heel
TTITLE1=Bootleg Medicine
TTITLE2=Blood On The Saddle
TTITLE3=Powder and Lead
TTITLE4=Oh Baby
TTITLE5=Hard At Best
TTITLE6=The Road Rules
TTITLE7=Dragon Lady
TTITLE8=I Dreamed I Saw Woody Guthrie
TTITLE9=White Line
TTITLE10=In The Pony's Stall
TTITLE11=Shotgun Shack
TTITLE12=Funeral Train
TTITLE13=Closest To Hell
TTITLE14=Cowboy Boot Heel (Reprise)
TTITLE15=Talkin' Blues
EXTD=YEAR: 2000
EXTT0=
EXTT1=
EXTT2=
EXTT3=
EXTT4=
EXTT5=
EXTT6=
EXTT7=
EXTT8=
EXTT9=
EXTT10=
EXTT11=
EXTT12=
EXTT13=
EXTT14=
EXTT15=
PLAYORDER=
